<svg width="46" height="41" viewBox="0 0 46 41" fill="none" xmlns="http://www.w3.org/2000/svg">
<path d="M25.0001 22.0001V33.1701L28.6561 29.5141L31.4861 32.3441L23.0001 40.8281L14.5141 32.3441L17.3441 29.5141L21.0001 33.1701V22.0001H25.0001ZM23.0001 0.000122115C26.434 0.00028561 29.7482 1.26235 32.3125 3.54636C34.8767 5.83037 36.5122 8.97705 36.9081 12.3881C39.3966 13.0668 41.5675 14.5983 43.0414 16.7152C44.5153 18.832 45.1984 21.3995 44.9713 23.9689C44.7442 26.5383 43.6215 28.9462 41.7992 30.7718C39.9769 32.5973 37.5711 33.7244 35.0021 33.9561L35.0001 30.0001C35.0032 26.8544 33.771 23.8332 31.5688 21.587C29.3665 19.3408 26.3703 18.0492 23.2251 17.9902C20.0799 17.9312 17.0374 19.1096 14.7524 21.2716C12.4675 23.4337 11.1229 26.4065 11.0081 29.5501L11.0001 30.0001V33.9561C8.43096 33.7248 6.02487 32.5979 4.20233 30.7725C2.37979 28.9471 1.25672 26.5392 1.02941 23.9698C0.802105 21.4003 1.48502 18.8327 2.9588 16.7157C4.43258 14.5987 6.60348 13.0669 9.09206 12.3881C9.48748 8.97688 11.1229 5.82994 13.6872 3.54585C16.2516 1.26176 19.566 -0.000151335 23.0001 0.000122115Z" fill="url(#paint0_linear)"/>
<defs>
<linearGradient id="paint0_linear" x1="23.0003" y1="0.00012207" x2="23.0003" y2="40.8281" gradientUnits="userSpaceOnUse">
<stop stop-color="#F56565"/>
<stop offset="1" stop-color="#D53F8C"/>
</linearGradient>
</defs>
</svg>
